<svg xmlns="http://www.w3.org/2000/svg" version="1.1" xmlns:xlink="http://www.w3.org/1999/xlink" xmlns:svgjs="http://svgjs.dev/svgjs" viewBox="0 0 640 800"><defs><linearGradient x1="50%" y1="0%" x2="50%" y2="100%" id="ccchaos-grad"><stop stop-color="hsl(162, 100%, 58%)" stop-opacity="1" offset="0%"></stop><stop stop-color="hsl(270, 73%, 53%)" stop-opacity="1" offset="100%"></stop></linearGradient></defs><g stroke-width="2" stroke="url(#ccchaos-grad)" fill="none" stroke-linecap="round"><path d="M313.53 125.61C323.25 124.09 333.13 122.83 343.17 121.86 353.24 120.72 363.49 119.97 373.9 119.65 384.37 119.3 395.03 119.48 405.85 120.2 416.73 121.04 427.77 122.49 438.92 124.57 450.08 126.87 461.29 129.82 472.44 133.42 483.48 137.28 494.32 141.78 504.81 146.89 514.96 152.27 524.53 158.23 533.35 164.71 541.52 171.43 548.7 178.63 554.71 186.26 559.84 194.06 563.65 202.25 566.08 210.76 567.63 219.39 567.89 228.31 566.92 237.45 565.51 246.66 563.29 256.08 560.54 265.65 558.15 275.25 555.86 284.99 554.05 294.83 553.53 304.68 554.09 314.63 555.96 324.64 559.69 334.65 564.92 344.73 571.57 354.83 579.8 364.94 588.97 375.08 598.64 385.22 608.68 395.37 618.2 405.51 626.59 415.61 633.73 425.72 638.61 435.53 640.99 445.03 641.27 454.52 638.9 463.68 634.08 472.47 627.45 481.24 618.94 489.61 608.99 497.57 598.3 505.48 587.04 512.95 575.64 519.95 564.68 526.89 554.26 533.35 544.62 539.32 536.14 545.23 528.68 550.66 522.25 555.61 514.93 562.79 505.35 575.22 501.97 580.72 499.2 586.31 491.92 597.56 486.71 603.61 482.8 608.21 478.1 613.03 472.64 618.1 466.9 623.8 460.43 629.79 453.27 636.08 445.89 642.94 437.91 650.02 429.42 657.25 420.77 664.86 411.7 672.43 402.28 679.8 392.78 687.21 383 694.15 372.98 700.43 362.94 706.32 352.71 711.25 342.31 715.05 331.91 718.06 321.6 719.67 311.39 719.87 301.18 719.16 291.06 717.06 281.03 713.66 270.98 709.46 260.99 704.12 251.09 697.78 241.13 690.91 231.23 683.27 221.4 675.03 211.52 666.59 201.7 657.77 191.97 648.71 182.22 639.75 172.59 630.71 163.13 621.7 153.72 612.98 144.54 604.36 135.66 595.9 126.93 587.81 118.59 579.88 110.7 572.11 103.09 564.71 96.01 557.42 89.55 550.21 83.43 543.3 77.96 536.4 73.18 529.46 68.73 522.74 64.94 515.91 61.81 508.93 58.89 502.09 56.53 495.03 54.68 487.74 52.83 480.51 51.35 473 50.18 465.2 48.79 457.42 47.58 449.32 46.52 440.9 45.07 432.49 43.71 423.75 42.43 414.69 40.76 405.63 39.22 396.25 37.87 386.57 36.29 376.9 35.1 367.17 34.35 357.43 33.64 347.7 33.56 337.97 34.14 328.29 34.99 318.64 36.62 309.06 39.03 299.59 41.83 290.18 45.42 280.91 49.77 271.84 54.46 262.84 59.83 254.07 65.78 245.58 71.93 237.2 78.55 229.13 85.54 221.43 92.52 213.86 99.76 206.69 107.16 199.96 114.39 193.39 121.71 187.28 129.07 181.66 136.17 176.22 143.3 171.27 150.45 166.84 157.32 162.56 164.23 158.77 171.22 155.49 177.97 152.29 184.84 149.55 191.87 147.26 198.71 144.95 205.78 143.02 213.07 141.46 220.25 139.75 227.72 138.33 235.47 137.17 243.16 135.75 251.18 134.53 259.52 133.47 267.82 132.08 276.47 130.81 285.47 129.67 294.45 128.18 303.8 126.81 313.52 125.61" stroke-dasharray="9 2" transform="rotate(0, 320, 400)" opacity="0.81"></path><path d="M319.62 136.94C329.1 135.44 338.76 134.2 348.56 133.24 358.39 132.1 368.39 131.33 378.54 130.97 388.73 130.57 399.07 130.67 409.52 131.27 420 131.98 430.57 133.26 441.16 135.12 451.71 137.18 462.2 139.86 472.53 143.14 482.69 146.66 492.53 150.8 501.92 155.52 510.92 160.49 519.27 166.01 526.81 172.05 533.73 178.32 539.66 185.06 544.45 192.22 548.48 199.57 551.3 207.29 552.89 215.35 553.8 223.53 553.61 232.01 552.44 240.72 551.02 249.51 549.02 258.51 546.69 267.68 544.86 276.89 543.27 286.24 542.22 295.7 542.45 305.19 543.72 314.76 546.2 324.4 550.38 334.04 555.88 343.74 562.61 353.47 570.71 363.2 579.58 372.94 588.83 382.68 598.35 392.41 607.35 402.13 615.27 411.79 622.06 421.45 626.77 430.82 629.2 439.86 629.72 448.89 627.81 457.59 623.62 465.92 617.73 474.23 610.03 482.15 600.89 489.68 590.97 497.16 580.35 504.22 569.44 510.84 558.77 517.41 548.42 523.55 538.65 529.24 529.82 534.89 521.85 540.12 514.76 544.92 508.8 549.74 503.67 554.19 499.23 558.29 494.17 564.47 486.23 576.05 482.41 581.77 479.93 585.94 477 590.17 473.53 594.5 469.96 599.34 465.74 604.38 460.85 609.64 455.77 615.46 450.01 621.53 443.6 627.83 437.02 634.63 429.83 641.6 422.11 648.64 414.27 656 405.95 663.28 397.22 670.33 388.43 677.38 379.29 683.96 369.84 689.9 360.38 695.46 350.65 700.12 340.69 703.72 330.72 706.59 320.78 708.16 310.87 708.43 300.97 707.86 291.1 706 281.28 702.91 271.45 699.09 261.66 694.18 251.91 688.32 242.15 681.94 232.43 674.81 222.77 667.06 213.11 659.09 203.51 650.71 194.03 642.04 184.57 633.41 175.25 624.66 166.14 615.87 157.12 607.3 148.36 598.79 139.93 590.37 131.7 582.27 123.87 574.3 116.51 566.45 109.45 558.93 102.92 551.5 97 544.16 91.42 537.1 86.46 530.05 82.15 523 78.15 516.16 74.76 509.24 71.99 502.22 69.38 495.33 67.27 488.28 65.63 481.04 63.96 473.88 62.61 466.48 61.54 458.84 60.22 451.23 59.05 443.35 58 435.19 56.56 427.05 55.18 418.61 53.88 409.91 52.18 401.19 50.6 392.2 49.19 382.95 47.55 373.7 46.27 364.42 45.42 355.15 44.6 345.88 44.36 336.64 44.77 327.46 45.43 318.31 46.85 309.24 49.01 300.3 51.56 291.41 54.88 282.68 58.94 274.15 63.36 265.7 68.45 257.48 74.14 249.54 80.05 241.71 86.46 234.19 93.25 227.02 100.1 219.98 107.23 213.33 114.56 207.1 121.77 201.01 129.1 195.36 136.5 190.19 143.69 185.15 150.91 180.58 158.16 176.51 165.15 172.54 172.18 169.03 179.27 166 186.12 163.01 193.07 160.45 200.13 158.3 207.02 156.1 214.07 154.26 221.32 152.75 228.44 151.09 235.81 149.69 243.43 148.53 250.97 147.11 258.81 145.88 266.96 144.8 275.06 143.4 283.49 142.13 292.27 140.99 301.02 139.5 310.13 138.14 319.61 136.94" stroke-dasharray="4 10" transform="rotate(4.04, 320, 400)" opacity="0.26"></path><path d="M325.74 148.28C334.98 146.81 344.37 145.58 353.89 144.62 363.43 143.49 373.11 142.72 382.9 142.32 392.71 141.88 402.62 141.91 412.58 142.4 422.53 142.98 432.5 144.1 442.4 145.77 452.22 147.6 461.88 150.01 471.29 153 480.47 156.2 489.25 159.98 497.51 164.32 505.36 168.88 512.52 173.98 518.85 179.58 524.61 185.39 529.4 191.66 533.14 198.36 536.23 205.23 538.25 212.48 539.2 220.06 539.66 227.78 539.21 235.79 538 244.04 536.72 252.38 535.06 260.94 533.24 269.67 532.01 278.46 531.11 287.4 530.81 296.44 531.74 305.52 533.65 314.69 536.68 323.92 541.22 333.17 546.92 342.47 553.68 351.78 561.62 361.11 570.17 370.45 578.98 379.76 588 389.07 596.48 398.36 603.95 407.58 610.39 416.79 614.93 425.71 617.38 434.31 618.12 442.9 616.63 451.16 613.02 459.06 607.84 466.94 600.92 474.45 592.6 481.58 583.45 488.68 573.51 495.38 563.16 501.68 552.88 507.94 542.74 513.81 532.98 519.27 523.96 524.72 515.61 529.8 508.01 534.51 501.4 539.26 495.53 543.7 490.32 547.85 484.07 554.16 474.18 566.26 469.73 572.32 466.99 576.72 463.95 581.18 460.51 585.76 457.08 590.79 453.13 596 448.62 601.4 444 607.3 438.78 613.4 432.98 619.67 427.03 626.38 420.52 633.19 413.48 640.03 406.33 647.13 398.7 654.1 390.63 660.82 382.5 667.51 373.98 673.74 365.11 679.34 356.21 684.59 347 688.98 337.51 692.38 328.01 695.13 318.47 696.66 308.93 696.97 299.38 696.54 289.83 694.89 280.29 692.11 270.75 688.65 261.23 684.16 251.74 678.75 242.25 672.86 232.8 666.22 223.42 658.98 214.07 651.48 204.79 643.55 195.65 635.31 186.58 627.05 177.67 618.62 168.99 610.1 160.45 601.74 152.19 593.39 144.29 585.09 136.6 577.04 129.34 569.08 122.56 561.22 116.07 553.64 110.11 546.14 104.75 538.71 99.7 531.54 95.24 524.39 91.4 517.26 87.82 510.32 84.82 503.34 82.37 496.28 80.04 489.36 78.17 482.31 76.72 475.12 75.19 468.01 73.95 460.71 72.94 453.21 71.68 445.75 70.53 438.07 69.48 430.16 68.04 422.26 66.65 414.11 65.31 405.74 63.59 397.36 61.97 388.74 60.52 379.9 58.82 371.07 57.47 362.22 56.52 353.41 55.59 344.6 55.22 335.84 55.46 327.15 55.94 318.5 57.14 309.94 59.06 301.53 61.35 293.16 64.39 284.97 68.14 276.98 72.26 269.06 77.05 261.39 82.44 253.99 88.08 246.69 94.23 239.69 100.79 233.05 107.45 226.52 114.42 220.36 121.62 214.61 128.77 208.98 136.06 203.77 143.45 199 150.68 194.35 157.96 190.13 165.28 186.37 172.38 182.69 179.52 179.44 186.7 176.63 193.66 173.83 200.7 171.42 207.84 169.39 214.79 167.3 221.88 165.53 229.13 164.06 236.25 162.43 243.57 161.04 251.11 159.88 258.57 158.46 266.29 157.22 274.29 156.12 282.24 154.72 290.49 153.44 299.06 152.29 307.61 150.81 316.5 149.47 325.73 148.28" stroke-dasharray="9 5" transform="rotate(8.08, 320, 400)" opacity="0.13"></path><path d="M331.44 159.61C340.41 158.17 349.49 156.96 358.67 156.01 367.86 154.9 377.15 154.12 386.49 153.7 395.84 153.23 405.22 153.19 414.59 153.59 423.92 154.06 433.19 155.03 442.3 156.51 451.3 158.13 460.06 160.29 468.49 162.99 476.67 165.89 484.38 169.33 491.52 173.29 498.27 177.46 504.31 182.15 509.53 187.31 514.25 192.67 518.06 198.49 520.92 204.71 523.26 211.1 524.67 217.87 525.18 224.96 525.36 232.19 524.83 239.72 523.73 247.5 522.71 255.37 521.47 263.46 520.21 271.73 519.61 280.06 519.41 288.55 519.82 297.15 521.39 305.79 523.88 314.53 527.37 323.33 532.22 332.15 538.06 341.03 544.79 349.91 552.52 358.81 560.73 367.72 569.11 376.6 577.62 385.49 585.6 394.33 592.63 403.11 598.72 411.88 603.08 420.36 605.54 428.53 606.47 436.7 605.36 444.54 602.29 452.04 597.78 459.52 591.62 466.66 584.09 473.43 575.72 480.18 566.51 486.57 556.77 492.59 546.97 498.6 537.14 504.24 527.52 509.53 518.45 514.83 509.89 519.8 501.93 524.46 494.8 529.18 488.31 533.64 482.44 537.86 477.38 542.22 472.79 546.42 468.56 550.49 463.19 556.93 453.21 570.25 447.99 577.35 444.53 582.54 440.67 587.88 436.36 593.37 432.02 599.3 427.16 605.39 421.8 611.6 416.34 618.17 410.37 624.81 403.89 631.42 397.34 638.24 390.3 644.9 382.83 651.28 375.3 657.62 367.36 663.49 359.04 668.76 350.7 673.7 342.02 677.84 333.01 681.04 324.01 683.66 314.92 685.15 305.77 685.51 296.64 685.19 287.47 683.75 278.28 681.26 269.11 678.13 259.94 674.04 250.79 669.08 241.67 663.66 232.58 657.51 223.57 650.76 214.62 643.75 205.77 636.29 197.06 628.49 188.46 620.63 180.04 612.56 171.88 604.36 163.88 596.26 156.19 588.12 148.87 580 141.77 572.07 135.11 564.18 128.93 556.37 123.03 548.79 117.65 541.27 112.84 533.82 108.31 526.59 104.34 519.39 100.95 512.21 97.77 505.21 95.11 498.18 92.96 491.11 90.89 484.16 89.22 477.13 87.92 469.99 86.51 462.93 85.35 455.73 84.39 448.37 83.16 441.06 82.02 433.56 80.96 425.88 79.51 418.21 78.1 410.34 76.73 402.28 74.99 394.22 73.34 385.97 71.84 377.53 70.1 369.09 68.69 360.67 67.66 352.31 66.64 343.95 66.14 335.66 66.22 327.47 66.53 319.3 67.51 311.25 69.19 303.35 71.21 295.5 73.95 287.83 77.4 280.37 81.2 272.98 85.66 265.82 90.72 258.95 96.05 252.17 101.9 245.68 108.18 239.54 114.6 233.49 121.36 227.8 128.38 222.5 135.4 217.3 142.6 212.49 149.93 208.1 157.14 203.8 164.43 199.91 171.78 196.44 178.95 193.02 186.16 190 193.42 187.37 200.48 184.74 207.61 182.47 214.81 180.54 221.85 178.53 228.99 176.82 236.26 175.38 243.41 173.78 250.72 172.4 258.22 171.22 265.63 169.8 273.27 168.54 281.14 167.43 288.97 166.03 297.06 164.74 305.44 163.58 313.79 162.12 322.45 160.79 331.43 159.61" stroke-dasharray="1 11" transform="rotate(12.12, 320, 400)" opacity="0.75"></path><path d="M336.27 170.95C344.94 169.54 353.69 168.35 362.48 167.42 371.27 166.33 380.1 165.55 388.92 165.11 397.74 164.61 406.52 164.52 415.22 164.84 423.86 165.2 432.35 166.03 440.63 167.34 448.76 168.76 456.6 170.7 464.03 173.13 471.22 175.73 477.9 178.85 483.99 182.46 489.71 186.25 494.74 190.53 498.99 195.27 502.82 200.19 505.83 205.54 507.99 211.3 509.76 217.21 510.76 223.49 511.01 230.09 511.09 236.83 510.62 243.86 509.75 251.14 509.09 258.53 508.34 266.13 507.68 273.92 507.71 281.77 508.17 289.79 509.24 297.92 511.4 306.11 514.39 314.39 518.27 322.73 523.34 331.11 529.26 339.54 535.91 347.98 543.41 356.44 551.27 364.91 559.2 373.34 567.22 381.79 574.71 390.2 581.3 398.53 587.06 406.87 591.24 414.93 593.69 422.68 594.78 430.44 594.01 437.88 591.44 445.01 587.56 452.13 582.12 458.92 575.36 465.38 567.77 471.83 559.29 477.95 550.22 483.73 540.97 489.52 531.55 494.99 522.2 500.14 513.22 505.33 504.59 510.23 496.42 514.86 488.92 519.58 481.96 524.08 475.54 528.38 469.84 532.84 464.6 537.17 459.73 541.4 455.44 545.87 451.36 550.31 447.4 554.76 443.79 559.52 440.13 564.36 436.32 569.28 432.67 574.57 428.75 579.99 424.48 585.53 420.25 591.45 415.6 597.48 410.52 603.59 405.41 610.01 399.83 616.43 393.8 622.8 387.72 629.32 381.19 635.66 374.23 641.71 367.22 647.69 359.82 653.22 352.03 658.17 344.21 662.8 336.05 666.69 327.54 669.71 319.04 672.19 310.42 673.63 301.72 674.04 293.05 673.83 284.31 672.58 275.54 670.35 266.8 667.54 258.06 663.83 249.33 659.3 240.65 654.34 232.02 648.67 223.48 642.41 215 635.89 206.65 628.9 198.47 621.56 190.41 614.13 182.56 606.45 174.98 598.6 167.58 590.82 160.49 582.95 153.79 575.04 147.32 567.29 141.27 559.55 135.7 551.84 130.39 544.33 125.58 536.86 121.31 529.43 117.28 522.2 113.77 514.99 110.79 507.81 107.98 500.79 105.64 493.76 103.75 486.7 101.9 479.76 100.4 472.76 99.22 465.69 97.91 458.69 96.8 451.59 95.87 444.37 94.65 437.19 93.51 429.87 92.42 422.41 90.97 414.97 89.53 407.37 88.13 399.62 86.38 391.87 84.7 383.96 83.16 375.91 81.39 367.85 79.93 359.85 78.83 351.93 77.72 344.01 77.12 336.18 77.05 328.46 77.18 320.77 77.96 313.21 79.39 305.82 81.15 298.46 83.6 291.29 86.72 284.35 90.19 277.46 94.31 270.81 99.01 264.45 104 258.15 109.52 252.15 115.48 246.48 121.61 240.89 128.1 235.64 134.88 230.75 141.71 225.95 148.75 221.52 155.95 217.47 163.08 213.49 170.32 209.89 177.64 206.68 184.82 203.5 192.07 200.67 199.35 198.21 206.49 195.73 213.68 193.57 220.93 191.73 228.03 189.79 235.22 188.12 242.51 186.7 249.69 185.12 257 183.74 264.46 182.55 271.84 181.13 279.4 179.85 287.16 178.72 294.88 177.32 302.82 176.03 311 174.87 319.16 173.43 327.58 172.11 336.26 170.95" stroke-dasharray="5 10" transform="rotate(16.16, 320, 400)" opacity="0.38"></path><path d="M339.88 182.28C348.23 180.91 356.59 179.75 364.94 178.84 373.28 177.77 381.6 177 389.86 176.54 398.09 176.03 406.22 175.89 414.2 176.14 422.11 176.41 429.81 177.12 437.22 178.27 444.5 179.51 451.42 181.23 457.9 183.41 464.14 185.74 469.87 188.55 475 191.82 481.9 197.2 491.71 210.41 494.55 218.16 495.95 223.59 496.69 229.39 496.86 235.5 496.98 241.74 496.71 248.27 496.17 255.06 495.94 261.94 495.71 269.04 495.66 276.34 496.31 283.7 497.4 291.23 499.08 298.88 501.75 306.58 505.17 314.39 509.36 322.26 514.59 330.17 520.52 338.14 527.05 346.13 534.28 354.13 541.77 362.15 549.26 370.14 556.79 378.14 563.8 386.11 569.98 394.01 575.41 401.91 579.4 409.55 581.83 416.92 583.05 424.27 582.58 431.35 580.48 438.14 577.18 444.91 572.42 451.39 566.4 457.57 559.58 463.75 551.85 469.63 543.47 475.22 534.83 480.82 525.91 486.14 516.93 491.19 508.17 496.29 499.61 501.15 491.37 505.79 483.67 510.51 476.38 515.06 469.55 519.46 463.34 524.01 457.53 528.46 452.1 532.84 447.2 537.44 442.55 542.04 438.07 546.64 433.96 551.53 429.87 556.49 425.73 561.51 421.81 566.87 417.7 572.32 413.36 577.87 409.1 583.73 404.52 589.66 399.6 595.64 394.68 601.86 389.37 608.06 383.67 614.16 377.94 620.38 371.81 626.39 365.29 632.1 358.74 637.73 351.8 642.92 344.5 647.55 337.18 651.9 329.5 655.54 321.5 658.37 313.5 660.73 305.37 662.12 297.17 662.56 288.97 662.44 280.72 661.37 272.43 659.39 264.18 656.89 255.93 653.54 247.7 649.42 239.53 644.89 231.42 639.69 223.41 633.91 215.49 627.88 207.71 621.38 200.12 614.5 192.65 607.51 185.42 600.26 178.47 592.8 171.7 585.37 165.25 577.81 159.19 570.18 153.35 562.66 147.92 555.12 142.95 547.58 138.22 540.19 133.95 532.83 130.19 525.49 126.63 518.31 123.54 511.15 120.94 504.02 118.46 497.03 116.4 490.03 114.73 483.02 113.06 476.12 111.7 469.18 110.61 462.19 109.37 455.27 108.3 448.28 107.37 441.21 106.15 434.18 104.99 427.04 103.88 419.8 102.4 412.58 100.94 405.24 99.51 397.79 97.74 390.34 96.05 382.77 94.48 375.09 92.7 367.41 91.2 359.82 90.03 352.32 88.86 344.82 88.15 337.44 87.95 330.19 87.92 322.95 88.5 315.87 89.7 308.96 91.19 302.08 93.35 295.4 96.14 288.95 99.27 282.54 103.02 276.37 107.36 270.48 111.98 264.65 117.12 259.1 122.72 253.87 128.51 248.7 134.69 243.86 141.18 239.36 147.75 234.92 154.57 230.83 161.57 227.1 168.55 223.41 175.67 220.07 182.89 217.08 190.03 214.11 197.23 211.46 204.5 209.14 211.64 206.78 218.85 204.72 226.1 202.94 233.24 201.06 240.45 199.43 247.73 198.02 254.92 196.45 262.21 195.07 269.62 193.86 276.96 192.44 284.44 191.15 292.08 190 299.67 188.6 307.45 187.31 315.41 186.15 323.36 184.72 331.51 183.43 339.86 182.28" stroke-dasharray="2 10" transform="rotate(20.200000000000003, 320, 400)" opacity="0.10"></path><path d="M341.99 193.62C349.98 192.28 357.93 191.16 365.8 190.26 373.66 189.22 381.44 188.46 389.09 188 396.71 187.48 404.17 187.3 411.42 187.48 418.59 187.68 425.5 188.28 432.08 189.28 441.55 191.13 458.01 197.17 464.75 201.38 470.52 206.23 478.56 218.23 480.85 225.31 482.36 232.94 483.21 249.99 483.09 259.29 483.33 265.66 483.65 272.26 484.2 279.06 485.43 285.91 487.1 292.94 489.31 300.1 492.42 307.31 496.19 314.63 500.62 322.03 505.93 329.46 511.83 336.95 518.19 344.47 525.13 352.02 532.24 359.58 539.29 367.12 546.34 374.68 552.89 382.21 558.66 389.68 563.76 397.16 567.56 404.4 569.95 411.39 571.28 418.37 571.08 425.1 569.39 431.56 566.63 438.02 562.52 444.22 557.21 450.14 551.13 456.08 544.16 461.75 536.5 467.17 528.51 472.61 520.15 477.82 511.63 482.79 503.2 487.82 494.85 492.65 486.69 497.29 478.92 502.04 471.46 506.64 464.37 511.11 457.78 515.74 451.54 520.3 445.64 524.8 440.22 529.51 435.05 534.22 430.08 538.94 425.48 543.92 420.96 548.95 416.46 554.04 412.19 559.41 407.83 564.85 403.32 570.35 398.93 576.12 394.32 581.92 389.44 587.73 384.6 593.73 379.45 599.68 373.98 605.5 368.5 611.4 362.68 617.08 356.51 622.45 350.33 627.74 343.8 632.59 336.94 636.92 330.06 640.98 322.86 644.38 315.35 647.04 307.84 649.26 300.21 650.61 292.51 651.07 284.83 651.04 277.09 650.13 269.33 648.38 261.61 646.16 253.89 643.16 246.22 639.43 238.61 635.32 231.08 630.57 223.67 625.27 216.35 619.71 209.18 613.69 202.22 607.29 195.39 600.77 188.8 593.95 182.5 586.92 176.38 579.86 170.58 572.66 165.16 565.36 159.93 558.12 155.11 550.83 150.72 543.52 146.53 536.32 142.78 529.12 139.49 521.93 136.36 514.86 133.66 507.81 131.38 500.78 129.19 493.86 127.36 486.94 125.88 480.02 124.36 473.19 123.1 466.35 122.07 459.47 120.87 452.66 119.82 445.8 118.87 438.89 117.64 432.02 116.46 425.07 115.31 418.06 113.81 411.06 112.33 403.97 110.87 396.81 109.1 389.66 107.39 382.42 105.8 375.11 104.01 367.8 102.48 360.59 101.27 353.5 100.03 346.42 99.24 339.46 98.91 332.66 98.74 325.86 99.13 319.23 100.1 312.79 101.34 306.37 103.21 300.15 105.67 294.16 108.46 288.2 111.84 282.49 115.78 277.04 120.01 271.64 124.76 266.51 129.96 261.69 135.38 256.91 141.19 252.44 147.33 248.29 153.59 244.18 160.11 240.4 166.85 236.95 173.61 233.51 180.54 230.4 187.58 227.62 194.59 224.82 201.69 222.32 208.86 220.13 215.95 217.88 223.1 215.89 230.3 214.17 237.41 212.34 244.59 210.72 251.82 209.32 258.98 207.76 266.22 206.37 273.54 205.15 280.8 203.72 288.18 202.43 295.66 201.26 303.12 199.86 310.7 198.58 318.42 197.42 326.13 196.01 333.99 194.74 341.98 193.62" stroke-dasharray="6 7" transform="rotate(24.24, 320, 400)" opacity="0.54"></path><path d="M342.45 204.95C350.05 203.65 357.55 202.57 364.92 201.7 372.28 200.69 379.49 199.95 386.53 199.49 393.53 198.96 400.32 198.76 406.85 198.88 416.38 199.26 433.58 202 441.04 204.41 447.77 207.36 458.35 215.49 462.13 220.64 465.12 226.35 468.57 239.73 469.33 247.31 469.87 252.57 470.25 258.11 470.58 263.9 471.31 269.77 472.18 275.86 473.29 282.15 475.06 288.51 477.25 295.03 479.92 301.69 483.4 308.4 487.44 315.23 492.03 322.14 497.37 329.09 503.18 336.1 509.34 343.16 515.96 350.23 522.68 357.34 529.29 364.44 535.87 371.55 541.96 378.64 547.34 385.7 552.12 392.76 555.73 399.61 558.07 406.24 559.47 412.86 559.51 419.25 558.2 425.42 555.93 431.58 552.41 437.51 547.79 443.22 542.43 448.93 536.19 454.42 529.25 459.69 521.95 464.99 514.22 470.09 506.23 475 498.23 479.96 490.2 484.77 482.25 489.43 474.56 494.18 467.08 498.82 459.86 503.37 453.04 508.06 446.51 512.69 440.27 517.29 434.44 522.07 428.84 526.86 423.45 531.65 418.41 536.67 413.48 541.74 408.61 546.83 403.99 552.17 399.34 557.56 394.62 562.97 390.04 568.6 385.31 574.24 380.4 579.85 375.56 585.61 370.48 591.28 365.14 596.81 359.83 602.39 354.23 607.73 348.35 612.77 342.47 617.71 336.29 622.24 329.82 626.26 323.34 630.05 316.58 633.22 309.55 635.7 302.51 637.8 295.39 639.09 288.2 639.57 281.04 639.62 273.83 638.85 266.63 637.32 259.46 635.37 252.32 632.68 245.24 629.33 238.22 625.62 231.3 621.32 224.51 616.47 217.82 611.39 211.29 605.85 204.99 599.93 198.8 593.87 192.87 587.51 187.23 580.91 181.74 574.28 176.58 567.46 171.78 560.52 167.15 553.62 162.9 546.63 159.05 539.59 155.37 532.63 152.09 525.65 149.22 518.66 146.47 511.77 144.1 504.87 142.11 497.99 140.15 491.2 138.51 484.41 137.18 477.63 135.77 470.92 134.58 464.2 133.59 457.47 132.41 450.8 131.35 444.1 130.38 437.37 129.12 430.67 127.9 423.93 126.72 417.15 125.2 410.38 123.69 403.56 122.21 396.69 120.43 389.83 118.72 382.92 117.12 375.96 115.33 369.01 113.79 362.18 112.54 355.49 111.26 348.8 110.39 342.25 109.95 335.87 109.65 329.5 109.87 323.3 110.62 317.29 111.62 311.3 113.19 305.52 115.34 299.96 117.78 294.43 120.79 289.14 124.33 284.1 128.16 279.1 132.49 274.36 137.27 269.91 142.27 265.49 147.67 261.35 153.42 257.52 159.3 253.71 165.48 250.2 171.88 246.99 178.35 243.79 185.01 240.88 191.8 238.26 198.6 235.62 205.51 233.26 212.5 231.16 219.46 229 226.48 227.08 233.55 225.39 240.58 223.6 247.65 222.01 254.77 220.61 261.84 219.05 268.97 217.66 276.16 216.42 283.3 214.98 290.52 213.68 297.81 212.51 305.09 211.11 312.44 209.83 319.88 208.68 327.32 207.3 334.84 206.05 342.44 204.96" stroke-dasharray="10 11" transform="rotate(28.28, 320, 400)" opacity="0.62"></path><path d="M341.22 216.29C348.41 215.03 355.43 213.98 362.29 213.14 369.13 212.17 375.79 211.45 382.22 210.99 391.69 210.36 409.14 210.61 416.98 211.59 424.28 212.98 436.57 217.73 441.46 221.1 445.68 224.99 451.65 234.76 453.55 240.58 455.16 246.87 457.52 261.09 458.72 268.92 459.93 274.29 461.32 279.9 462.96 285.69 465.21 291.54 467.84 297.56 470.9 303.73 474.66 309.94 478.89 316.27 483.57 322.7 488.88 329.16 494.55 335.7 500.47 342.29 506.76 348.9 513.08 355.55 519.25 362.21 525.37 368.88 531.03 375.55 536.02 382.2 540.49 388.85 543.9 395.32 546.17 401.6 547.64 407.88 547.87 413.96 546.9 419.84 545.07 425.72 542.11 431.41 538.12 436.9 533.45 442.4 527.93 447.72 521.72 452.86 515.12 458.03 508.04 463.03 500.65 467.88 493.16 472.78 485.55 477.56 477.92 482.22 470.45 486.97 463.09 491.64 455.89 496.23 449 500.95 442.31 505.63 435.87 510.28 429.75 515.1 423.85 519.92 418.13 524.74 412.72 529.76 407.44 534.8 402.26 539.87 397.31 545.13 392.38 550.41 387.44 555.7 382.64 561.16 377.77 566.6 372.78 571.98 367.87 577.47 362.8 582.86 357.55 588.08 352.33 593.33 346.9 598.34 341.24 603.04 335.6 607.65 329.71 611.85 323.59 615.59 317.47 619.1 311.11 622.05 304.53 624.37 297.95 626.34 291.3 627.57 284.64 628.07 277.98 628.18 271.32 627.55 264.68 626.21 258.08 624.51 251.52 622.13 245.05 619.12 238.64 615.8 232.33 611.91 226.19 607.52 220.12 602.89 214.24 597.82 208.59 592.38 203.04 586.8 197.75 580.91 192.75 574.76 187.87 568.56 183.32 562.16 179.1 555.62 175.02 549.08 171.3 542.44 167.95 535.73 164.72 529.06 161.85 522.35 159.35 515.62 156.92 508.95 154.84 502.27 153.08 495.59 151.31 488.99 149.83 482.38 148.59 475.77 147.26 469.23 146.11 462.68 145.13 456.13 143.95 449.63 142.87 443.11 141.86 436.59 140.57 430.09 139.32 423.57 138.09 417.03 136.55 410.51 135.02 403.96 133.53 397.39 131.75 390.82 130.04 384.23 128.45 377.62 126.66 371.02 125.11 364.55 123.84 358.24 122.53 351.93 121.6 345.78 121.06 339.8 120.67 330.93 122.67 314.17 125.16 306.32 128.58 298.73 138.4 284.79 144.69 278.48 149.25 274.38 154.21 270.55 159.51 267 164.98 263.46 170.75 260.19 176.76 257.19 182.87 254.19 189.18 251.45 195.66 248.99 202.17 246.48 208.81 244.22 215.54 242.21 222.27 240.12 229.09 238.26 235.96 236.6 242.8 234.84 249.7 233.26 256.64 231.86 263.55 230.31 270.5 228.91 277.49 227.65 284.45 226.22 291.47 224.91 298.51 223.73 305.55 222.34 312.64 221.07 319.76 219.93 326.87 218.58 334.03 217.36 341.21 216.29" stroke-dasharray="9 4" transform="rotate(32.32, 320, 400)" opacity="0.88"></path><path d="M338.4 227.62C345.14 226.42 351.69 225.4 358.03 224.59 364.36 223.66 370.46 222.97 376.32 222.52 384.92 221.89 400.56 222.03 407.5 222.86 419.33 226.16 432.8 234.73 435.79 238.87 438.4 243.48 442.27 254.39 443.82 260.64 445.66 267.27 450.15 281.85 453.19 289.72 455.85 295.08 458.85 300.61 462.21 306.29 466.18 312 470.52 317.85 475.22 323.81 480.45 329.78 485.93 335.85 491.58 341.98 497.53 348.13 503.44 354.33 509.18 360.55 514.85 366.79 520.08 373.04 524.7 379.3 528.86 385.55 532.07 391.65 534.27 397.59 535.97 406.42 532.85 423.26 528.22 431.28 524.2 436.58 519.38 441.74 513.87 446.74 507.98 451.78 501.58 456.68 494.82 461.46 487.91 466.3 480.8 471.04 473.6 475.68 466.46 480.41 459.34 485.07 452.31 489.68 445.48 494.4 438.79 499.09 432.27 503.75 426.02 508.56 419.93 513.37 414.01 518.18 408.34 523.15 402.8 528.13 397.38 533.11 392.15 538.25 386.98 543.4 381.85 548.52 376.85 553.77 371.83 558.98 366.75 564.11 361.76 569.33 356.67 574.41 351.47 579.32 346.3 584.23 340.99 588.9 335.52 593.27 330.06 597.55 324.43 601.45 318.62 604.9 312.82 608.15 306.83 610.88 300.67 613.03 294.51 614.88 288.34 616.05 282.17 616.56 276.02 616.72 269.89 616.22 263.81 615.06 257.76 613.59 251.78 611.49 245.91 608.81 240.09 605.86 234.41 602.37 228.89 598.4 223.44 594.22 218.18 589.62 213.16 584.65 208.22 579.54 203.53 574.11 199.13 568.44 194.83 562.69 190.83 556.73 187.15 550.61 183.57 544.47 180.31 538.21 177.39 531.86 174.56 525.53 172.04 519.14 169.86 512.71 167.7 506.32 165.84 499.9 164.26 493.48 162.65 487.11 161.26 480.72 160.1 474.34 158.81 468.01 157.68 461.68 156.68 455.34 155.48 449.05 154.37 442.75 153.31 436.46 151.99 430.19 150.7 423.91 149.43 417.64 147.87 411.37 146.33 405.1 144.82 398.83 143.06 392.56 141.36 386.29 139.77 380.03 138 373.77 136.46 367.66 135.17 361.72 133.36 352.89 131.69 336.11 132.01 328.19 133.09 320.49 138.06 306.15 141.95 299.56 146.67 293.22 158.63 281.78 165.72 276.7 170.73 273.39 176.04 270.33 181.61 267.52 187.3 264.7 193.2 262.11 199.29 259.76 205.43 257.37 211.72 255.21 218.12 253.26 224.55 251.24 231.07 249.41 237.65 247.78 244.24 246.05 250.88 244.47 257.55 243.07 264.22 241.52 270.93 240.12 277.65 238.85 284.37 237.42 291.11 236.11 297.86 234.92 304.61 233.55 311.37 232.3 318.13 231.17 324.89 229.85 331.65 228.67 338.39 227.63" stroke-dasharray="1 7" transform="rotate(36.36, 320, 400)" opacity="0.16"></path><path d="M334.2 238.96C340.48 237.8 346.55 236.83 352.39 236.06 358.22 235.17 363.8 234.51 369.12 234.07 379.69 233.02 389.09 233.06 397.17 234.21 405.03 235.42 411.49 237.9 416.51 241.61 421.41 245.57 425.12 250.81 427.83 257.2 431.07 263.87 434.01 271.65 437.08 280.36 441.68 289.29 447.18 299.04 453.83 309.42 462.48 319.93 472.26 330.95 482.67 342.31 488.25 348 493.76 353.76 499.07 359.56 504.3 365.37 509.12 371.22 513.38 377.08 517.23 382.95 520.25 388.7 522.36 394.31 523.87 399.92 524.42 405.41 524 410.75 521.22 421.46 514.89 431.68 505.69 441.38 494.96 451.22 482.51 460.7 469.16 469.82 455.79 479.26 442.37 488.55 429.32 497.69 417.01 507.33 405.18 516.97 393.86 526.53 383.22 536.63 372.78 546.61 362.41 556.24 352.37 566.1 342.06 575.31 331.42 583.47 326.13 587.42 320.72 591.01 315.2 594.19 309.67 597.19 304.03 599.71 298.27 601.7 289.64 603.98 272.59 605.05 264.24 603.87 253.22 601.05 242.64 596.02 232.73 589.12 223.05 581.43 214.2 572.23 206.39 561.91 198.89 551.26 192.51 539.83 187.35 527.92 182.36 516.04 178.47 503.85 175.61 491.56 172.5 479.42 170.09 467.2 168.21 455.02 165.54 442.96 163.06 430.88 160.72 418.87 159.15 412.88 157.6 406.9 156.09 400.94 154.34 394.98 152.66 389.03 151.09 383.11 148.59 374.31 144.7 357.54 143.51 349.6 142.39 339.13 142.98 329.4 145.31 320.51 148.46 311.63 153.46 303.6 160.11 296.51 167.58 289.4 176.49 283.19 186.54 277.92 197.08 272.54 208.47 267.99 220.41 264.28 232.54 260.26 245.04 256.92 257.71 254.23 270.42 251.02 283.25 248.29 296.04 246.1 302.44 244.74 308.84 243.51 315.2 242.4 321.57 241.12 327.91 239.97 334.19 238.96" stroke-dasharray="3 10" transform="rotate(40.400000000000006, 320, 400)" opacity="0.82"></path><path d="M328.93 250.3C340.56 247.95 351.29 246.4 360.99 245.64 370.61 244.63 379.11 244.62 386.4 245.64 393.55 246.66 399.49 248.85 404.23 252.15 409.02 255.64 412.87 260.3 416.03 266.02 419.8 271.97 423.45 278.95 427.34 286.81 432.62 294.86 438.71 303.71 445.72 313.17 454.39 322.75 463.88 332.86 473.74 343.34 484.22 353.85 493.97 364.67 502.05 375.64 508.76 386.62 512.26 397.22 512.41 407.39 510.35 417.58 505.08 427.4 497.17 436.81 487.79 446.35 476.67 455.61 464.49 464.6 452.09 473.87 439.38 483.02 426.79 492.03 414.69 501.46 402.91 510.85 391.54 520.11 380.72 529.78 370.14 539.26 359.72 548.34 349.61 557.56 339.4 566.1 329.07 573.61 318.82 580.77 308.27 586.48 297.5 590.36 286.72 593.33 276.21 594.05 266.12 592.64 256.09 590.23 246.58 585.82 237.79 579.68 229.15 572.82 221.34 564.53 214.51 555.15 207.89 545.43 202.28 534.9 197.75 523.85 193.28 512.76 189.73 501.32 187.07 489.73 184.08 478.22 181.67 466.61 179.71 455.02 176.97 443.53 174.4 432.02 171.97 420.61 168.58 409.24 165.33 397.92 162.41 386.75 158.9 375.59 156.32 365.08 154.85 355.3 153.57 345.51 153.83 336.45 155.67 328.19 158.21 319.92 162.44 312.44 168.22 305.83 174.74 299.18 182.65 293.35 191.68 288.37 201.21 283.24 211.62 278.87 222.62 275.26 233.86 271.34 245.52 268.04 257.36 265.34 269.3 262.16 281.35 259.45 293.34 257.24 305.36 254.44 317.28 252.09 328.92 250.3" stroke-dasharray="0 7" transform="rotate(44.44, 320, 400)" opacity="0.34"></path><path d="M322.98 261.63C333.69 259.41 343.51 257.94 352.36 257.23 361.15 256.27 368.92 256.23 375.61 257.12 385.05 258.96 399.4 268 405.12 275.17 409.42 280.46 413.74 286.7 418.33 293.77 424.15 300.98 430.64 308.97 437.86 317.57 446.4 326.25 455.51 335.48 464.76 345.11 474.44 354.77 483.36 364.78 490.73 375.01 496.93 385.25 500.3 395.22 500.74 404.86 499.3 414.53 495.01 423.93 488.29 433.02 480.23 442.22 470.43 451.23 459.5 460.01 448.19 469.04 436.38 477.96 424.49 486.75 412.85 495.88 401.37 504.93 390.2 513.8 379.43 522.98 368.88 531.92 358.56 540.4 348.49 548.96 338.46 556.84 328.46 563.72 318.53 570.26 308.5 575.48 298.42 579.03 288.33 581.79 278.66 582.53 269.5 581.36 260.37 579.33 251.84 575.49 244.03 570.07 236.32 564.01 229.41 556.6 223.42 548.14 217.53 539.35 212.55 529.74 208.51 519.59 204.43 509.35 201.13 498.71 198.58 487.89 195.65 477.1 193.2 466.17 191.13 455.24 188.32 444.38 185.67 433.5 183.17 422.73 179.8 411.99 176.6 401.33 173.73 390.84 170.33 380.35 167.78 370.52 166.25 361.4 164.85 352.25 164.83 343.81 166.23 336.13 168.2 328.41 171.72 321.44 176.66 315.27 182.25 309.02 189.16 303.52 197.14 298.79 205.62 293.9 214.97 289.69 224.94 286.17 235.19 282.34 245.88 279.08 256.8 276.38 267.84 273.24 279.01 270.55 290.1 268.36 301.25 265.64 312.27 263.36 322.98 261.63" stroke-dasharray="4 11" transform="rotate(48.48, 320, 400)" opacity="0.76"></path><path d="M316.81 272.97C326.61 270.88 335.59 269.5 343.69 268.84 351.76 267.93 358.93 267.88 365.2 268.68 374.19 270.27 388.8 278.27 395.19 284.65 399.98 289.33 404.86 294.88 410.01 301.22 416.2 307.66 422.94 314.84 430.2 322.61 438.5 330.45 447.13 338.84 455.74 347.66 464.62 356.5 472.72 365.72 479.41 375.22 485.1 384.73 488.32 394.07 488.99 403.17 488.08 412.31 484.66 421.26 479.05 429.98 472.23 438.8 463.75 447.49 454.1 455.99 443.97 464.7 433.21 473.32 422.19 481.79 411.25 490.53 400.31 499.16 389.56 507.58 379.08 516.21 368.77 524.56 358.7 532.42 348.83 540.31 339.07 547.52 329.45 553.78 319.9 559.73 310.38 564.46 300.96 567.69 291.53 570.25 282.63 571 274.31 570.04 265.99 568.36 258.31 565.05 251.36 560.3 244.44 554.98 238.3 548.42 232.99 540.87 227.7 532.99 223.21 524.31 219.53 515.07 215.73 505.72 212.6 495.94 210.09 485.93 207.17 475.92 204.65 465.74 202.46 455.54 199.59 445.37 196.86 435.18 194.31 425.09 190.99 415.03 187.85 405.04 185.05 395.23 181.77 385.43 179.29 376.26 177.73 367.76 176.24 359.24 175.99 351.39 177 344.23 178.46 337.04 181.32 330.53 185.46 324.74 190.17 318.87 196.09 313.67 203.04 309.17 210.44 304.49 218.71 300.43 227.6 296.98 236.78 293.25 246.43 290.04 256.33 287.35 266.37 284.27 276.57 281.62 286.72 279.45 296.92 276.82 307.02 274.62 316.81 272.97" stroke-dasharray="10 2" transform="rotate(52.52, 320, 400)" opacity="0.87"></path><path d="M310.89 284.3C319.8 282.35 328.01 281.07 335.47 280.45 342.91 279.62 349.61 279.56 355.57 280.28 364.28 281.68 379.3 288.75 386.3 294.41 391.49 298.54 396.8 303.48 402.34 309.13 408.75 314.86 415.55 321.28 422.71 328.29 430.65 335.34 438.74 342.93 446.66 350.97 454.75 359.01 462.06 367.47 468.09 376.26 473.28 385.05 476.33 393.76 477.17 402.31 476.71 410.89 474.06 419.36 469.46 427.66 463.79 436.05 456.57 444.34 448.2 452.49 439.31 460.8 429.69 469.03 419.69 477.1 409.63 485.38 399.44 493.52 389.32 501.4 379.35 509.44 369.49 517.16 359.84 524.38 350.33 531.59 340.97 538.14 331.8 543.79 322.7 549.17 313.71 553.44 304.93 556.35 296.14 558.71 287.94 559.46 280.36 558.69 272.78 557.32 265.84 554.49 259.6 550.37 253.36 545.76 247.83 540 243.05 533.32 238.23 526.34 234.11 518.58 230.69 510.26 227.08 501.81 224.04 492.92 221.51 483.77 218.58 474.6 215.98 465.22 213.67 455.79 210.74 446.37 207.97 436.92 205.38 427.54 202.13 418.19 199.08 408.9 196.38 399.79 193.24 390.68 190.84 382.16 189.28 374.26 187.74 366.35 187.3 359.05 187.97 352.39 188.99 345.69 191.25 339.61 194.67 334.18 198.54 328.65 203.53 323.73 209.48 319.43 215.82 314.96 222.99 311.04 230.79 307.67 238.86 304.05 247.41 300.9 256.26 298.24 265.25 295.23 274.42 292.64 283.59 290.51 292.81 287.98 301.97 285.88 310.89 284.3" stroke-dasharray="10 7" transform="rotate(56.56, 320, 400)" opacity="0.20"></path><path d="M305.64 295.64C313.71 293.82 321.21 292.64 328.09 292.08 334.98 291.32 341.29 291.27 347.03 291.92 355.54 293.16 370.97 299.42 378.45 304.45 383.92 308.09 389.5 312.46 395.27 317.49 401.71 322.57 408.43 328.29 415.34 334.57 422.82 340.88 430.32 347.72 437.54 355.01 444.83 362.3 451.38 370.02 456.77 378.09 461.47 386.17 464.32 394.24 465.28 402.21 465.2 410.21 463.2 418.15 459.51 425.98 454.91 433.88 448.88 441.72 441.74 449.44 434.1 457.27 425.68 465.03 416.79 472.62 407.76 480.36 398.48 487.94 389.16 495.25 379.9 502.64 370.67 509.71 361.61 516.28 352.63 522.8 343.79 528.7 335.17 533.76 326.59 538.58 318.19 542.4 310.03 545.02 301.88 547.17 294.33 547.91 287.41 547.31 280.48 546.21 274.17 543.82 268.52 540.27 262.84 536.32 257.81 531.33 253.44 525.48 248.98 519.36 245.12 512.5 241.85 505.1 238.38 497.57 235.37 489.58 232.79 481.31 229.83 473.01 227.15 464.47 224.74 455.85 221.78 447.24 218.99 438.56 216.39 429.93 213.23 421.32 210.29 412.76 207.7 404.35 204.73 395.94 202.44 388.07 200.9 380.77 199.35 373.45 198.76 366.69 199.15 360.5 199.8 354.27 201.53 348.59 204.29 343.49 207.41 338.3 211.53 333.64 216.53 329.54 221.87 325.28 227.98 321.5 234.7 318.23 241.66 314.73 249.12 311.66 256.89 309.04 264.8 306.13 272.93 303.61 281.11 301.54 289.35 299.12 297.57 297.13 305.64 295.64" stroke-dasharray="2 4" transform="rotate(60.599999999999994, 320, 400)" opacity="0.52"></path><path d="M301.48 306.97C308.73 305.3 315.57 304.23 321.94 303.72 331.31 303.03 348.17 304.71 355.92 307.16 361.24 309 366.46 311.53 371.63 314.71 377.22 317.91 382.92 321.77 388.72 326.24 395.04 330.73 401.53 335.81 408.07 341.41 415.01 347.03 421.85 353.16 428.35 359.73 434.86 366.3 440.67 373.3 445.45 380.67 449.67 388.04 452.31 395.45 453.34 402.82 453.54 410.21 452.12 417.59 449.22 424.88 445.57 432.24 440.64 439.55 434.68 446.75 428.26 454.04 421.05 461.25 413.32 468.3 405.4 475.43 397.16 482.4 388.78 489.07 380.39 495.8 371.95 502.19 363.62 508.09 355.32 513.93 347.13 519.19 339.14 523.68 331.19 527.96 323.41 531.35 315.89 533.68 308.37 535.63 301.43 536.34 295.11 535.89 288.76 535.03 282.99 533.03 277.83 530.03 272.62 526.68 267.97 522.4 263.9 517.34 259.73 512.04 256.06 506.07 252.88 499.56 249.49 492.93 246.49 485.86 243.85 478.48 240.87 471.06 238.13 463.4 235.64 455.62 232.69 447.84 229.91 439.97 227.34 432.12 224.29 424.28 221.48 416.46 219.02 408.76 216.23 401.07 214.07 393.85 212.58 387.14 210.71 377.29 211.52 360.03 214.34 352.61 218.46 345.55 231.21 333.59 239.47 328.62 245.36 325.26 251.75 322.29 258.48 319.75 265.32 316.95 272.42 314.53 279.64 312.53 286.9 310.25 294.22 308.37 301.48 306.97" stroke-dasharray="2 2" transform="rotate(64.64, 320, 400)" opacity="0.86"></path><path d="M298.7 318.31C305.19 316.79 311.39 315.82 317.28 315.37 326.01 314.77 342.26 316.31 349.98 318.5 355.28 320.13 360.54 322.36 365.77 325.18 371.32 327.99 376.94 331.39 382.62 335.33 388.67 339.28 394.78 343.77 400.84 348.74 407.17 353.72 413.33 359.17 419.1 365.05 424.84 370.92 429.94 377.22 434.13 383.89 437.88 390.56 440.29 397.29 441.35 404.02 441.76 410.77 440.81 417.54 438.6 424.25 435.79 431 431.86 437.72 427 444.35 421.72 451.03 415.69 457.63 409.13 464.05 402.37 470.54 395.22 476.84 387.87 482.85 380.47 488.89 372.95 494.58 365.46 499.82 357.98 504.99 350.55 509.62 343.27 513.56 336.02 517.32 328.92 520.3 322.05 522.35 312.01 524.43 294.62 522.97 287.22 519.63 282.4 516.83 278.08 513.21 274.24 508.9 270.29 504.38 266.76 499.24 263.64 493.61 260.32 487.86 257.32 481.68 254.64 475.21 251.65 468.68 248.89 461.9 246.36 454.98 243.45 448.05 240.71 441.01 238.2 433.95 235.31 426.9 232.66 419.85 230.34 412.89 227.75 405.92 225.74 399.36 224.33 393.24 222.49 384.24 222.68 368.35 224.82 361.46 228.02 354.87 238.35 343.58 245.2 338.83 250.1 335.64 255.48 332.8 261.21 330.35 267.04 327.69 273.15 325.39 279.44 323.49 285.76 321.35 292.21 319.6 298.7 318.31" stroke-dasharray="4 5" transform="rotate(68.68, 320, 400)" opacity="0.54"></path><path d="M297.53 329.64C309.03 326.74 319.95 325.93 330.08 327.03 340.53 327.83 350.76 330.82 360.75 335.79 371.68 340.72 382.84 347.71 393.63 356.47 405.04 365.22 415.3 375.71 422.81 387.64 428.96 399.57 430.47 411.86 427.68 423.97 423.04 436.2 414.76 448.36 404.12 459.84 392.7 471.44 379.86 482.26 366.75 491.45 353.59 500.38 340.44 507.23 328.06 511.01 315.67 513.85 305.07 513.03 296.35 509.09 287.38 504.28 279.93 496.71 274 487.22 267.32 477.32 261.6 465.91 256.88 453.83 250.93 441.67 245.68 429.03 241.66 416.57 236.76 404.12 234.13 392.98 233.87 383.4 233.84 373.69 236.61 365.32 241.85 358.5 247.62 351.28 255.65 345.31 265.22 340.84 275.04 335.7 286.03 331.82 297.53 329.64" stroke-dasharray="4 4" transform="rotate(72.72, 320, 400)" opacity="0.43"></path><path d="M298.04 340.98C308.11 338.43 318.02 337.75 327.51 338.77 337.23 339.52 346.95 342.16 356.45 346.52 366.59 350.8 376.77 356.88 386.38 364.52 396.33 372.13 405.11 381.31 411.49 391.81 416.85 402.31 418.41 413.19 416.46 423.94 413.15 434.76 406.74 445.5 398.19 455.59 388.96 465.72 378.3 475.09 367.14 482.98 355.88 490.63 344.43 496.46 333.46 499.68 322.48 502.18 312.93 501.6 304.9 498.4 296.66 494.55 289.63 488.31 283.83 480.38 277.43 472.11 271.84 462.45 267.17 452.08 261.57 441.64 256.68 430.65 252.98 419.71 248.59 408.76 246.19 398.86 245.81 390.23 245.51 381.5 247.55 373.88 251.7 367.57 256.17 360.95 262.62 355.42 270.56 351.22 278.65 346.51 287.97 342.97 298.04 340.98" stroke-dasharray="11 1" transform="rotate(76.76, 320, 400)" opacity="0.65"></path><path d="M300.21 352.32C308.89 350.12 317.7 349.57 326.33 350.5 335.13 351.21 344.03 353.53 352.72 357.3 361.79 360.99 370.78 366.21 379.08 372.77 387.52 379.3 394.86 387.19 400.17 396.26 404.74 405.32 406.26 414.73 404.99 424.03 402.75 433.37 397.96 442.61 391.31 451.24 384.12 459.87 375.56 467.79 366.35 474.4 357.04 480.81 347.35 485.67 337.85 488.34 328.34 490.5 319.88 490.13 312.58 487.58 305.12 484.57 298.57 479.57 293.02 473.09 287.02 466.35 281.69 458.36 277.22 449.67 272.08 440.92 267.63 431.6 264.31 422.18 260.45 412.76 258.32 404.13 257.89 396.51 257.44 388.81 258.93 382 262.17 376.29 265.58 370.34 270.7 365.32 277.18 361.48 283.74 357.26 291.52 354.09 300.21 352.32" stroke-dasharray="2 7" transform="rotate(80.80000000000001, 320, 400)" opacity="0.49"></path><path d="M303.86 363.65C311.16 361.82 318.75 361.4 326.31 362.23 333.99 362.88 341.79 364.89 349.37 368.1 357.17 371.23 364.77 375.62 371.68 381.13 378.61 386.6 384.56 393.22 388.84 400.82 392.63 408.43 394.03 416.32 393.27 424.11 391.87 431.92 388.45 439.61 383.47 446.75 378.11 453.86 371.5 460.34 364.19 465.71 356.78 470.91 348.87 474.84 340.89 477.01 332.92 478.82 325.62 478.6 319.15 476.64 312.57 474.37 306.65 470.46 301.51 465.33 296.05 460.02 291.16 453.62 287.03 446.56 282.45 439.45 278.53 431.77 275.63 423.91 272.34 416.04 270.52 408.72 270.11 402.18 270.16 392.62 277.77 377.24 284.97 371.62 290.19 367.94 296.56 365.19 303.86 363.65" stroke-dasharray="10 1" transform="rotate(84.84, 320, 400)" opacity="0.93"></path><path d="M308.72 374.99C320.54 371.87 333.86 373.5 346.24 378.84 358.98 383.94 370.66 393.11 377.52 405.37 383.14 417.61 381.56 430.75 374.71 442.05 366.89 453.22 355.17 462.11 342.37 465.67 329.57 468.35 318.09 464.81 309.21 457.14 299.57 449 291.5 437.44 286.95 424.84 281.39 412.23 280.84 400.96 284.69 392.59 288.53 383.81 296.89 377.33 308.72 374.99" stroke-dasharray="5 4" transform="rotate(88.88, 320, 400)" opacity="0.41"></path><path d="M314.43 386.32C323.42 384.01 333.68 385.35 343.13 389.49 352.69 393.47 361.26 400.48 366.2 409.73 370.46 418.97 369.68 428.78 365.09 437.09 359.98 445.31 351.76 451.78 342.17 454.33 332.57 456.4 323.46 453.98 316.12 448.51 308.4 442.78 301.91 434.38 298.27 424.93 294.05 415.48 293.63 406.77 296.48 400.14 299.25 393.29 305.44 388.19 314.43 386.32" stroke-dasharray="7 10" transform="rotate(92.92, 320, 400)" opacity="0.84"></path><path d="M320.56 397.66C332.73 394.43 348.34 401.35 354.88 413.76 360.23 426.16 353.04 439.55 340.3 443 327.55 445.59 314.41 436.78 309.59 424.19 303.71 411.59 308.39 400.09 320.56 397.66" stroke-dasharray="5 11" transform="rotate(96.96, 320, 400)" opacity="0.48"></path></g></svg>
